<svg xmlns="http://www.w3.org/2000/svg">
  
  <!-- Site Logo -->
<symbol id="main-logo" viewBox="0 0 175 40" fill="none">
<g clip-path="url(#clip0_4_157)">
<path d="M170.394 7.66415L174.568 11.8668C174.714 11.9829 174.822 12.1396 174.878 12.3171C174.963 13.3515 174.18 13.4081 173.38 13.4659C173.034 13.4909 172.685 13.5162 172.402 13.621C170.998 14.0009 169.746 14.8033 168.815 15.9193C167.883 17.0353 167.318 18.4109 167.195 19.8593C167.105 20.0266 166.969 20.1643 166.802 20.2558C166.636 20.3474 166.447 20.3888 166.257 20.3753C166.037 20.3558 165.831 20.2595 165.675 20.1032L164.305 18.7238C164.315 18.8182 164.315 18.9117 164.315 18.9869V19.8968C164.315 19.9543 164.317 20.0097 164.31 20.065C164.301 20.127 164.28 20.1888 164.231 20.2532V20.3377C164.231 20.3808 164.236 20.4209 164.241 20.4616C164.251 20.5449 164.262 20.6307 164.231 20.7505C164.201 20.8622 164.198 20.9925 164.194 21.1088C164.193 21.1779 164.191 21.2421 164.184 21.2945C164.174 21.3672 164.174 21.4448 164.168 21.5223C164.162 21.5949 164.15 21.6674 164.118 21.7354C164.074 21.8306 164.059 21.9215 164.055 22.0139C164.052 22.0581 164.052 22.1026 164.052 22.1482L163.996 22.439L161.867 32.5891L161.698 33.3489L161.632 34.4559L160.694 39.2495L160.544 40H84.6248L84.2589 39.6341L84.1932 39.9531H76.0694L71.5478 35.4034L71.9793 33.3489H69.4277L67.8424 31.7448C65.8749 33.1775 63.4934 33.9285 61.06 33.8837C58.4442 33.9866 55.8941 33.0488 53.9681 31.2758L51.5009 28.7899L50.9662 31.2851C50.9006 31.6416 50.8161 31.9794 50.7223 32.3077L50.6379 32.6173L50.4972 33.0675C50.4856 33.1066 50.4699 33.1444 50.4503 33.1801C50.3106 33.5937 50.1446 33.9979 49.9531 34.3902C49.9581 34.4054 49.9581 34.4219 49.9531 34.4371C49.9285 34.4891 49.9003 34.5392 49.8686 34.5872C49.727 34.8675 49.5705 35.1399 49.3996 35.4034C49.3679 35.4513 49.3397 35.5015 49.3152 35.5535L49.212 35.666C48.9827 35.9949 48.732 36.3082 48.4615 36.6041C48.3873 36.6783 48.3131 36.748 48.2377 36.8164C48.1607 36.8864 48.0825 36.9551 48.0018 37.0262L47.7955 37.2232C47.6654 37.3313 47.5323 37.4356 47.3964 37.5361C47.2843 37.619 47.1703 37.6992 47.0544 37.7767C45.1211 38.9222 42.891 39.4674 40.6473 39.3433C37.5516 39.3433 35.075 38.4427 33.5084 36.8668L29.0994 32.4296C27.3383 33.4262 25.3442 33.9377 23.3208 33.9118C20.7129 33.9925 18.1782 33.042 16.2664 31.2664L13.7993 28.7805L13.0019 32.6173L12.8424 33.3771H4.54036L0 28.7992L0.234521 27.6923L5.22515 3.72418L5.37521 2.97372H13.7054L13.9212 3.18013V2.97372H70.0469L70.2533 3.18013V2.97372H78.3771L82.9174 7.55158L82.6923 8.64913L82.4484 9.8499H84.7842L85.1501 10.2158C86.1779 9.61344 87.3453 9.29005 88.5366 9.27769C89.4126 9.26039 90.2825 9.42678 91.0903 9.76608C91.8982 10.1054 92.626 10.61 93.227 11.2476L93.105 11.1069L95.3095 13.3302C96.651 10.8068 99.6622 9.27769 103.752 9.27769C106.923 9.27769 109.259 10.0844 110.675 11.5478L112.27 13.152L112.805 10.5722L112.964 9.82173H121.097L123.424 12.1576L123.752 10.5816L123.912 9.83112H139.916L140.347 10.2627C141.431 9.62306 142.672 9.29818 143.931 9.32458C144.688 9.29503 145.442 9.43365 146.14 9.73047C146.837 10.0273 147.46 10.475 147.964 11.0413C147.938 11.0118 147.913 10.9823 147.888 10.9533C147.843 10.8995 147.798 10.847 147.75 10.7984L148.565 11.6135C149.275 10.8782 150.129 10.2959 151.072 9.90235C152.016 9.50877 153.03 9.3121 154.052 9.32458C154.595 9.2912 155.137 9.3374 155.663 9.46033L154.775 8.56473C154.654 8.43528 154.572 8.27421 154.539 8.10021C154.506 7.92621 154.523 7.74631 154.587 7.58147C154.652 7.41657 154.762 7.27343 154.905 7.16854C155.048 7.06365 155.217 7.00129 155.394 6.98875H156.107C156.299 6.97043 156.49 6.94226 156.679 6.9043C157.676 6.69474 158.614 6.26624 159.425 5.6497C160.237 5.03323 160.901 4.24418 161.37 3.33959C161.411 3.26962 161.448 3.19765 161.482 3.12384V3.07695C161.805 2.38215 162.001 1.63581 162.064 0.872416C162.08 0.635203 162.187 0.413106 162.361 0.251186C162.535 0.0892079 162.764 -0.00056984 163.002 2.72188e-06H163.077C163.219 0.0135152 163.357 0.0594347 163.479 0.134211C163.601 0.209045 163.704 0.310732 163.781 0.431543C164.456 1.08821 168.208 4.90617 168.208 4.90617C168.521 5.24238 168.498 5.67885 168.474 6.12046C168.459 6.39352 168.444 6.66858 168.508 6.92308C168.679 6.95371 168.852 6.9769 169.024 6.99259C169.19 7.00753 169.356 7.01566 169.522 7.01687C169.716 7.02093 169.905 7.0854 170.061 7.2014C170.217 7.31735 170.334 7.4791 170.394 7.66415Z" fill="#027063"/>
<path d="M42.9361 10.7505H48.8648L45.544 26.5009C44.9343 29.484 43.771 31.1914 42.0074 32.4015C40.2236 33.4366 38.1753 33.9258 36.1163 33.8086C32.1951 33.8086 28.4333 32.167 28.0581 28.1801H34.0243C34.2119 29.1182 35.075 29.6529 36.3883 29.6529C38.1613 29.6529 38.9774 28.5835 39.3433 26.9043L39.6997 25.1688H39.5684C39.0449 25.7443 38.4099 26.2073 37.702 26.5298C36.994 26.8523 36.228 27.0276 35.4502 27.045C31.9981 27.045 29.2588 24.2964 29.3151 20.272C29.3902 15.5816 32.4483 10.2533 37.5797 10.2533C38.5521 10.1878 39.5229 10.4021 40.3774 10.8709C41.2319 11.3396 41.9342 12.0433 42.4014 12.8987H42.5046L42.9361 10.7505ZM37.8423 22.6454C40.1219 22.6454 41.3883 20.0188 41.4258 17.758C41.4258 16.2477 40.8348 14.6998 39.09 14.6998C36.7072 14.6998 35.4971 17.3546 35.4596 19.6341C35.4596 21.1726 36.0506 22.6454 37.7954 22.6454M104.4 23.152C104.4 24.1557 103.536 24.5591 102.401 24.5591C100.525 24.5591 99.8967 23.621 99.8873 22.3077H93.9868C93.8836 27.2045 98.2551 28.4146 102.139 28.4146C107.101 28.4146 110.319 26.2664 110.385 21.9794C110.385 18.5553 107.467 17.5141 104.597 16.848C102.392 16.3415 101.426 15.9756 101.435 15.1407C101.445 14.3058 102.43 13.9681 103.396 13.9681C104.606 13.9681 105.431 14.3996 105.516 15.5066H111.248C111.182 11.4165 107.495 10.2158 103.743 10.2158C99.1838 10.2158 95.6284 12.2889 95.5721 16.2101C95.5721 19.2964 97.6547 20.4315 100.797 21.2383C102.814 21.773 104.418 21.9418 104.4 23.152ZM148.236 13.2927H148.133C147.878 12.3689 147.314 11.5602 146.536 11.0005C145.758 10.4409 144.812 10.164 143.855 10.2158C141.304 10.2158 139.747 11.4822 138.274 13.3959H138.171L138.715 10.7505H132.748L129.174 27.8424H135.413L137.289 18.621C137.72 16.6135 138.743 15.2064 140.291 15.2064C141.839 15.2064 142.045 16.4446 141.726 17.955L139.662 27.8424H145.9L147.777 18.621C148.208 16.4822 149.231 15.2064 150.778 15.2064C152.326 15.2064 152.533 16.379 152.214 17.955L150.15 27.8424H156.388L158.621 17.6829C159.559 13.3959 158.124 10.1782 154.006 10.1782C152.86 10.1735 151.732 10.4561 150.724 11.0002C149.716 11.5443 148.861 12.3325 148.236 13.2927ZM1.14441 27.8424H7.58906L12.5703 3.87427H6.13503L1.14441 27.8424ZM20.544 10.2439C24.8967 10.2439 29.0525 12.6266 28.9868 18.0206C28.9305 23.9212 24.9155 28.3396 18.7804 28.3396C14.559 28.3396 10.3377 25.9944 10.4127 20.6285C10.5159 14.8687 14.4746 10.2439 20.544 10.2439ZM18.9587 24.1557C21.7073 24.1557 22.711 20.1688 22.711 17.8236C22.711 16.1445 22.1951 14.5028 20.3845 14.5028C17.6641 14.5028 16.7354 18.7242 16.7354 20.9006C16.7354 22.6454 17.2232 24.1557 18.9962 24.1557M14.7185 3.87427L13.7804 8.66789H67.8986L68.8367 3.87427H14.7185ZM58.2457 10.2439C62.5984 10.2439 66.7541 12.6266 66.6885 18.0206C66.6322 23.9212 62.6078 28.3396 56.4727 28.3396C52.2513 28.3396 48.0299 25.9944 48.1144 20.6285C48.2457 14.8687 52.2044 10.2439 58.2457 10.2439ZM56.6885 24.1557C59.4371 24.1557 60.4408 20.1688 60.4408 17.8236C60.4408 16.1445 59.9155 14.5028 58.105 14.5028C55.3939 14.5028 54.4558 18.7242 54.4558 20.9006C54.4558 22.6454 54.9436 24.1557 56.726 24.1557M71.0506 3.87427L70.1125 8.66789H76.3414L77.2795 3.87427H71.0506ZM66.06 27.8424H72.2982L75.8723 10.7505H69.5965L66.06 27.8424ZM85.9661 28.4146C84.9733 28.4851 83.9804 28.2776 83.0988 27.8153C82.2173 27.353 81.482 26.6542 80.9755 25.7974H80.8723L78.9962 34.4465H72.6828L77.7485 10.7505H83.6772L83.2082 13.03C83.8273 12.188 84.6293 11.4973 85.5538 11.0098C86.4783 10.5224 87.5013 10.2509 88.5459 10.2158C92.2982 10.2158 94.5027 13.4334 94.4371 17.6173C94.3526 22.8799 91.6228 28.4146 85.9286 28.4146H85.9661ZM85.7222 15.0563C83.3114 15.0563 81.8292 18.1426 81.7917 20.516C81.7917 22.167 82.3733 24.0056 84.3526 24.0056C86.9324 24.0056 87.9924 20.591 88.0205 18.3114C88.0205 16.7636 87.5703 15.0563 85.7222 15.0563ZM121.792 25.1501H121.895L121.351 27.8612H127.279L130.854 10.7692H124.625L122.636 20.3189C122.233 22.2983 121.013 23.3396 119.475 23.3396C117.936 23.3396 117.598 21.8949 117.908 20.3846L119.925 10.7692H113.696L111.491 21.3227C110.553 25.9193 112.692 28.3959 116.276 28.3959C117.401 28.3849 118.504 28.0774 119.472 27.5042C120.44 26.931 121.241 26.1125 121.792 25.1313V25.1501ZM155.253 34.531L156.191 29.7373H82.2138L81.2757 34.531H155.253Z" fill="white"/>
<path d="M161.96 15.4409C161.899 15.4362 161.839 15.4193 161.784 15.3912C161.728 15.3632 161.679 15.3245 161.639 15.2774C161.599 15.2303 161.569 15.1758 161.55 15.1169C161.531 15.058 161.524 14.996 161.529 14.9343C161.607 14.0989 161.508 13.2563 161.238 12.4619C160.968 11.6675 160.533 10.939 159.961 10.3244C159.39 9.70973 158.695 9.22271 157.923 8.89521C157.15 8.56772 156.317 8.40714 155.478 8.424C155.354 8.424 155.235 8.37459 155.147 8.28662C155.059 8.19866 155.009 8.07935 155.009 7.95495C155.009 7.83055 155.059 7.71126 155.147 7.6233C155.235 7.53533 155.354 7.48591 155.478 7.48591C155.703 7.50045 155.929 7.50045 156.154 7.48591C157.82 7.3084 159.372 6.55561 160.543 5.35708C161.715 4.15855 162.431 2.58925 162.57 0.919306C162.58 0.801523 162.633 0.691657 162.72 0.611654C162.807 0.531652 162.921 0.487416 163.039 0.487795C163.101 0.49253 163.161 0.509418 163.216 0.537479C163.271 0.56554 163.32 0.604223 163.36 0.651304C163.401 0.698386 163.431 0.752932 163.45 0.811808C163.469 0.870684 163.476 0.93272 163.471 0.994355C163.393 1.82902 163.492 2.67077 163.761 3.46455C164.031 4.25832 164.465 4.98625 165.035 5.60075C165.606 6.21524 166.299 6.70246 167.07 7.03055C167.842 7.35864 168.674 7.5202 169.512 7.50467C169.636 7.50467 169.756 7.5541 169.844 7.64206C169.932 7.73002 169.981 7.84932 169.981 7.97372C169.981 8.09812 169.932 8.21743 169.844 8.30539C169.756 8.39335 169.636 8.44276 169.512 8.44276C167.73 8.4722 166.021 9.15874 164.714 10.3707C163.407 11.5826 162.593 13.2345 162.43 15.0094C162.42 15.1272 162.367 15.2371 162.28 15.3171C162.193 15.3971 162.079 15.4413 161.96 15.4409Z" fill="white"/>
</g>
<defs>
<clipPath id="clip0_4_157">
<rect width="175" height="40" fill="white"/>
</clipPath>
</defs>
</symbol>


<!-- Clock -->
<symbol id="clock" viewBox="0 0 44 44" fill="none">
  <g clip-path="url(#clip0_4_20)">
  <path d="M22 38.5C31.1127 38.5 38.5 31.1127 38.5 22C38.5 12.8873 31.1127 5.5 22 5.5C12.8873 5.5 5.5 12.8873 5.5 22C5.5 31.1127 12.8873 38.5 22 38.5Z" stroke="white" stroke-width="2.75" stroke-linecap="round" stroke-linejoin="round"/>
  <path d="M22 12.8334V22L27.5 27.5" stroke="white" stroke-width="2.75" stroke-linecap="round" stroke-linejoin="round"/>
  </g>
  <defs>
    <clipPath id="clip0_4_20">
      <rect width="44" height="44" fill="white"/>
    </clipPath>
  </defs>
</symbol>

<!-- Star -->
<symbol id="star" viewBox="0 0 51 44">
  <g clip-path="url(#clip0_4_12)" fill="none">
  <path d="M25.4697 32.5416L12.8479 38.4908L15.259 25.8903L5.03394 16.9675L19.1445 15.1341L25.4554 3.67029L31.7663 15.1341L45.8769 16.9675L35.6518 25.8903L38.0629 38.4908L25.4697 32.5416Z" stroke="white" stroke-width="2.75" stroke-linecap="round" stroke-linejoin="round"/>
  </g>
  <defs>
    <clipPath id="clip0_4_12">
      <rect width="49.0802" height="44"  transform="translate(0.929565)"/>
    </clipPath>
  </defs>
</symbol>

<!-- Dollar on Hand -->
<symbol id="dollarOnHand" viewBox="0 0 40 35" >
  <g clip-path="url(#clip0_30_17)">
    <path d="M21.5914 1.64062V2.3584C22.0343 2.44043 22.4634 2.54297 22.8509 2.64551C23.7367 2.87793 24.2627 3.78027 24.0274 4.65527C23.7921 5.53027 22.8786 6.0498 21.9928 5.81738C21.2385 5.61914 20.5326 5.48242 19.9029 5.47559C19.3977 5.46875 18.8856 5.5918 18.5603 5.77637C18.415 5.86523 18.3458 5.94043 18.3181 5.98145C18.2974 6.01562 18.2697 6.06348 18.2697 6.17285C18.2697 6.19336 18.2697 6.20703 18.2697 6.21387C18.2835 6.22754 18.332 6.2959 18.498 6.3916C18.8994 6.63086 19.4946 6.81543 20.3942 7.08203L20.4565 7.10254C21.2247 7.32812 22.2489 7.63574 23.0793 8.14844C24.0274 8.73633 24.8855 9.71387 24.9063 11.2178C24.927 12.7559 24.1173 13.877 23.0585 14.5332C22.5949 14.8135 22.0966 15.0117 21.5845 15.1348V15.8594C21.5845 16.7686 20.844 17.5 19.9236 17.5C19.0032 17.5 18.2627 16.7686 18.2627 15.8594V15.0801C17.6053 14.9229 17.0033 14.7178 16.4911 14.5469C16.3458 14.499 16.2074 14.4512 16.0759 14.4102C15.204 14.123 14.7334 13.1934 15.024 12.332C15.3147 11.4707 16.2559 11.0059 17.1278 11.293C17.3077 11.3545 17.4738 11.4092 17.633 11.4639C18.5742 11.7783 19.2524 12.0039 19.979 12.0312C20.5326 12.0518 21.024 11.9219 21.3077 11.751C21.4392 11.6689 21.5015 11.6006 21.5291 11.5527C21.5568 11.5117 21.5914 11.4297 21.5845 11.2725V11.2588C21.5845 11.1904 21.5845 11.1152 21.3077 10.9443C20.9132 10.6982 20.3181 10.5068 19.4323 10.2402L19.3008 10.1992C18.5534 9.98047 17.5707 9.68652 16.7818 9.21484C15.8476 8.66113 14.9479 7.71094 14.941 6.2002C14.9341 4.63477 15.8337 3.56152 16.8579 2.95996C17.3008 2.7002 17.7783 2.52246 18.2558 2.39941V1.64062C18.2558 0.731445 18.9963 0 19.9167 0C20.8371 0 21.5776 0.731445 21.5776 1.64062H21.5914ZM39.3213 22.9893C40.2279 24.2061 39.9649 25.915 38.7331 26.8105L29.9719 33.1885C28.3526 34.3643 26.4011 35 24.3872 35H13.287H2.21451C0.989607 35 0 34.0225 0 32.8125V28.4375C0 27.2275 0.989607 26.25 2.21451 26.25H4.76119L7.86841 23.7891C9.43933 22.5449 11.3909 21.875 13.4047 21.875H18.8233H19.9305H24.3596C25.5845 21.875 26.5741 22.8525 26.5741 24.0625C26.5741 25.2725 25.5845 26.25 24.3596 26.25H19.9305H18.8233C18.2143 26.25 17.716 26.7422 17.716 27.3438C17.716 27.9453 18.2143 28.4375 18.8233 28.4375H27.1692L35.4528 22.4082C36.6847 21.5127 38.4147 21.7725 39.3213 22.9893ZM13.3978 26.25H13.3355C13.3562 26.25 13.377 26.25 13.3978 26.25Z" fill="white"/>
  </g>
  <defs>
    <clipPath id="clip0_30_17">
      <rect width="39.8611" height="35" fill="white"/>
    </clipPath>
  </defs>
</symbol>

<!-- Dollar -->
<symbol id="dollar" fill="none" viewBox="0 0 29 30">
  <g clip-path="url(#clip0_4_81)">
    <path d="M20.1051 10C19.8655 9.29405 19.4279 8.67871 18.8486 8.23317C18.2693 7.78763 17.5749 7.53229 16.8546 7.5H12.039C11.0812 7.5 10.1625 7.89509 9.4852 8.59835C8.80788 9.30161 8.42737 10.2554 8.42737 11.25C8.42737 12.2446 8.80788 13.1984 9.4852 13.9017C10.1625 14.6049 11.0812 15 12.039 15H16.8546C17.8125 15 18.7311 15.3951 19.4085 16.0983C20.0858 16.8016 20.4663 17.7554 20.4663 18.75C20.4663 19.7446 20.0858 20.6984 19.4085 21.4017C18.7311 22.1049 17.8125 22.5 16.8546 22.5H12.039C11.3188 22.4677 10.6244 22.2124 10.0451 21.7668C9.46579 21.3213 9.02817 20.706 8.78854 20" stroke="white" stroke-width="3" stroke-linecap="round" stroke-linejoin="round"/>
    <path d="M14.4469 3.75V7.5M14.4469 22.5V26.25" stroke="white" stroke-width="3" stroke-linecap="round" stroke-linejoin="round"/>
  </g>
  <defs>
    <clipPath id="clip0_4_81">
    <rect x="0.00012207" width="28.8934" height="30" rx="14.4467" fill="white"/>
  </clipPath>
  </defs>
</symbol>


<!-- Amazon -->
<symbol id="amazon" viewBox="0 0 700 700">
 <defs>
  <symbol id="v" overflow="visible">
   <path d="m18.766-1.125c-0.96875 0.5-1.9805 0.875-3.0312 1.125-1.043 0.25781-2.1367 0.39062-3.2812 0.39062-3.3984 0-6.0898-0.94531-8.0781-2.8438-1.9922-1.9062-2.9844-4.4844-2.9844-7.7344 0-3.2578 0.99219-5.8359 2.9844-7.7344 1.9883-1.9062 4.6797-2.8594 8.0781-2.8594 1.1445 0 2.2383 0.13281 3.2812 0.39062 1.0508 0.25 2.0625 0.625 3.0312 1.125v4.2188c-0.98047-0.65625-1.9453-1.1406-2.8906-1.4531-0.94922-0.3125-1.9492-0.46875-3-0.46875-1.875 0-3.3516 0.60547-4.4219 1.8125-1.0742 1.1992-1.6094 2.8555-1.6094 4.9688 0 2.1055 0.53516 3.7617 1.6094 4.9688 1.0703 1.1992 2.5469 1.7969 4.4219 1.7969 1.0508 0 2.0508-0.14844 3-0.45312 0.94531-0.3125 1.9102-0.80078 2.8906-1.4688z"/>
  </symbol>
  <symbol id="b" overflow="visible">
   <path d="m13.734-11.141c-0.4375-0.19531-0.87109-0.34375-1.2969-0.4375-0.41797-0.10156-0.83984-0.15625-1.2656-0.15625-1.2617 0-2.2305 0.40625-2.9062 1.2188-0.67969 0.80469-1.0156 1.9531-1.0156 3.4531v7.0625h-4.8906v-15.312h4.8906v2.5156c0.625-1 1.3438-1.7266 2.1562-2.1875 0.82031-0.46875 1.8008-0.70312 2.9375-0.70312 0.16406 0 0.34375 0.011719 0.53125 0.03125 0.19531 0.011719 0.47656 0.039062 0.84375 0.078125z"/>
  </symbol>
  <symbol id="a" overflow="visible">
   <path d="m17.641-7.7031v1.4062h-11.453c0.125 1.1484 0.53906 2.0078 1.25 2.5781 0.70703 0.57422 1.7031 0.85938 2.9844 0.85938 1.0312 0 2.082-0.14844 3.1562-0.45312 1.082-0.3125 2.1914-0.77344 3.3281-1.3906v3.7656c-1.1562 0.4375-2.3125 0.76562-3.4688 0.98438-1.1562 0.22656-2.3125 0.34375-3.4688 0.34375-2.7734 0-4.9297-0.70312-6.4688-2.1094-1.5312-1.4062-2.2969-3.3789-2.2969-5.9219 0-2.5 0.75391-4.4609 2.2656-5.8906 1.5078-1.4375 3.582-2.1562 6.2188-2.1562 2.4062 0 4.332 0.73047 5.7812 2.1875 1.4453 1.4492 2.1719 3.3828 2.1719 5.7969zm-5.0312-1.625c0-0.92578-0.27344-1.6719-0.8125-2.2344-0.54297-0.57031-1.25-0.85938-2.125-0.85938-0.94922 0-1.7188 0.26562-2.3125 0.79688s-0.96484 1.2969-1.1094 2.2969z"/>
  </symbol>
  <symbol id="f" overflow="visible">
   <path d="m9.2188-6.8906c-1.0234 0-1.793 0.17188-2.3125 0.51562-0.51172 0.34375-0.76562 0.85547-0.76562 1.5312 0 0.625 0.20703 1.1172 0.625 1.4688 0.41406 0.34375 0.98828 0.51562 1.7188 0.51562 0.92578 0 1.7031-0.32812 2.3281-0.98438 0.63281-0.66406 0.95312-1.4922 0.95312-2.4844v-0.5625zm7.4688-1.8438v8.7344h-4.9219v-2.2656c-0.65625 0.92969-1.3984 1.6055-2.2188 2.0312-0.82422 0.41406-1.8242 0.625-3 0.625-1.5859 0-2.8711-0.45703-3.8594-1.375-0.99219-0.92578-1.4844-2.1289-1.4844-3.6094 0-1.7891 0.61328-3.1016 1.8438-3.9375 1.2383-0.84375 3.1797-1.2656 5.8281-1.2656h2.8906v-0.39062c0-0.76953-0.30859-1.332-0.92188-1.6875-0.61719-0.36328-1.5703-0.54688-2.8594-0.54688-1.0547 0-2.0312 0.10547-2.9375 0.3125-0.89844 0.21094-1.7305 0.52344-2.5 0.9375v-3.7344c1.0391-0.25 2.0859-0.44141 3.1406-0.57812 1.0625-0.13281 2.125-0.20312 3.1875-0.20312 2.7578 0 4.75 0.54688 5.9688 1.6406 1.2266 1.0859 1.8438 2.8555 1.8438 5.3125z"/>
  </symbol>
  <symbol id="c" overflow="visible">
   <path d="m7.7031-19.656v4.3438h5.0469v3.5h-5.0469v6.5c0 0.71094 0.14062 1.1875 0.42188 1.4375s0.83594 0.375 1.6719 0.375h2.5156v3.5h-4.1875c-1.9375 0-3.3125-0.39844-4.125-1.2031-0.80469-0.8125-1.2031-2.1797-1.2031-4.1094v-6.5h-2.4219v-3.5h2.4219v-4.3438z"/>
  </symbol>
  <symbol id="k" overflow="visible">
   <path d="m12.766-13.078v-8.2031h4.9219v21.281h-4.9219v-2.2188c-0.66797 0.90625-1.4062 1.5703-2.2188 1.9844s-1.7578 0.625-2.8281 0.625c-1.8867 0-3.4336-0.75-4.6406-2.25-1.2109-1.5-1.8125-3.4258-1.8125-5.7812 0-2.3633 0.60156-4.2969 1.8125-5.7969 1.207-1.5 2.7539-2.25 4.6406-2.25 1.0625 0 2 0.21484 2.8125 0.64062 0.82031 0.42969 1.5664 1.0859 2.2344 1.9688zm-3.2188 9.9219c1.0391 0 1.8359-0.37891 2.3906-1.1406 0.55078-0.76953 0.82812-1.8828 0.82812-3.3438 0-1.457-0.27734-2.5664-0.82812-3.3281-0.55469-0.76953-1.3516-1.1562-2.3906-1.1562-1.043 0-1.8398 0.38672-2.3906 1.1562-0.55469 0.76172-0.82812 1.8711-0.82812 3.3281 0 1.4609 0.27344 2.5742 0.82812 3.3438 0.55078 0.76172 1.3477 1.1406 2.3906 1.1406z"/>
  </symbol>
  <symbol id="e" overflow="visible">
   <path d="m10.5-3.1562c1.0508 0 1.8516-0.37891 2.4062-1.1406 0.55078-0.76953 0.82812-1.8828 0.82812-3.3438 0-1.457-0.27734-2.5664-0.82812-3.3281-0.55469-0.76953-1.3555-1.1562-2.4062-1.1562-1.0547 0-1.8594 0.38672-2.4219 1.1562-0.55469 0.77344-0.82812 1.8828-0.82812 3.3281 0 1.4492 0.27344 2.5586 0.82812 3.3281 0.5625 0.77344 1.3672 1.1562 2.4219 1.1562zm-3.25-9.9219c0.67578-0.88281 1.4219-1.5391 2.2344-1.9688 0.82031-0.42578 1.7656-0.64062 2.8281-0.64062 1.8945 0 3.4453 0.75 4.6562 2.25 1.207 1.5 1.8125 3.4336 1.8125 5.7969 0 2.3555-0.60547 4.2812-1.8125 5.7812-1.2109 1.5-2.7617 2.25-4.6562 2.25-1.0625 0-2.0078-0.21094-2.8281-0.625-0.8125-0.42578-1.5586-1.0859-2.2344-1.9844v2.2188h-4.8906v-21.281h4.8906z"/>
  </symbol>
  <symbol id="j" overflow="visible">
   <path d="m0.34375-15.312h4.8906l4.125 10.391 3.5-10.391h4.8906l-6.4375 16.766c-0.64844 1.6953-1.4023 2.8828-2.2656 3.5625-0.86719 0.6875-2 1.0312-3.4062 1.0312h-2.8438v-3.2188h1.5312c0.83203 0 1.4375-0.13672 1.8125-0.40625 0.38281-0.26172 0.67969-0.73047 0.89062-1.4062l0.14062-0.42188z"/>
  </symbol>
  <symbol id="i" overflow="visible">
   <path d="m2.5781-20.406h5.25v16.422h9.25v3.9844h-14.5z"/>
  </symbol>
  <symbol id="h" overflow="visible">
   <path d="m14.312-14.828v3.7188c-1.043-0.4375-2.0547-0.76562-3.0312-0.98438-0.98047-0.21875-1.9023-0.32812-2.7656-0.32812-0.92969 0-1.6211 0.11719-2.0781 0.34375-0.44922 0.23047-0.67188 0.58984-0.67188 1.0781 0 0.38672 0.17188 0.68359 0.51562 0.89062 0.34375 0.21094 0.95703 0.36719 1.8438 0.46875l0.85938 0.125c2.5078 0.32422 4.1953 0.85156 5.0625 1.5781 0.86328 0.73047 1.2969 1.8711 1.2969 3.4219 0 1.6367-0.60547 2.8672-1.8125 3.6875-1.1992 0.8125-2.9922 1.2188-5.375 1.2188-1.0234 0-2.0742-0.078125-3.1562-0.23438-1.0742-0.15625-2.1797-0.39453-3.3125-0.71875v-3.7188c0.96875 0.48047 1.9609 0.83984 2.9844 1.0781 1.0312 0.23047 2.0781 0.34375 3.1406 0.34375 0.95703 0 1.6758-0.12891 2.1562-0.39062 0.47656-0.26953 0.71875-0.66406 0.71875-1.1875 0-0.4375-0.16797-0.75781-0.5-0.96875-0.33594-0.21875-0.99609-0.38281-1.9844-0.5l-0.85938-0.10938c-2.1797-0.26953-3.7031-0.77344-4.5781-1.5156-0.875-0.73828-1.3125-1.8594-1.3125-3.3594 0-1.625 0.55078-2.8281 1.6562-3.6094 1.1133-0.78906 2.8203-1.1875 5.125-1.1875 0.89453 0 1.8359 0.074219 2.8281 0.21875 1 0.13672 2.082 0.35156 3.25 0.64062z"/>
  </symbol>
  <symbol id="u" overflow="visible">
   <path d="m2.5781-20.406h6.6875l4.6562 10.922 4.6719-10.922h6.6875v20.406h-4.9844v-14.938l-4.7031 11.016h-3.3281l-4.7031-11.016v14.938h-4.9844z"/>
  </symbol>
  <symbol id="t" overflow="visible">
   <path d="m2.3594-15.312h4.8906v15.312h-4.8906zm0-5.9688h4.8906v4h-4.8906z"/>
  </symbol>
  <symbol id="d" overflow="visible">
   <path d="m9.6406-12.188c-1.0859 0-1.9141 0.39062-2.4844 1.1719-0.57422 0.78125-0.85938 1.9062-0.85938 3.375s0.28516 2.5938 0.85938 3.375c0.57031 0.77344 1.3984 1.1562 2.4844 1.1562 1.0625 0 1.875-0.38281 2.4375-1.1562 0.57031-0.78125 0.85938-1.9062 0.85938-3.375s-0.28906-2.5938-0.85938-3.375c-0.5625-0.78125-1.375-1.1719-2.4375-1.1719zm0-3.5c2.6328 0 4.6914 0.71484 6.1719 2.1406 1.4766 1.418 2.2188 3.3867 2.2188 5.9062 0 2.5117-0.74219 4.4805-2.2188 5.9062-1.4805 1.418-3.5391 2.125-6.1719 2.125-2.6484 0-4.7148-0.70703-6.2031-2.125-1.4922-1.4258-2.2344-3.3945-2.2344-5.9062 0-2.5195 0.74219-4.4883 2.2344-5.9062 1.4883-1.4258 3.5547-2.1406 6.2031-2.1406z"/>
  </symbol>
  <symbol id="g" overflow="visible">
   <path d="m17.75-9.3281v9.3281h-4.9219v-7.1406c0-1.3203-0.03125-2.2344-0.09375-2.7344s-0.16797-0.86719-0.3125-1.1094c-0.1875-0.3125-0.44922-0.55469-0.78125-0.73438-0.32422-0.17578-0.69531-0.26562-1.1094-0.26562-1.0234 0-1.8242 0.39844-2.4062 1.1875-0.58594 0.78125-0.875 1.8711-0.875 3.2656v7.5312h-4.8906v-15.312h4.8906v2.2344c0.73828-0.88281 1.5195-1.5391 2.3438-1.9688 0.83203-0.42578 1.75-0.64062 2.75-0.64062 1.7695 0 3.1133 0.54688 4.0312 1.6406 0.91406 1.0859 1.375 2.6562 1.375 4.7188z"/>
  </symbol>
  <symbol id="s" overflow="visible">
   <path d="m12.422-21.281v3.2188h-2.7031c-0.6875 0-1.1719 0.125-1.4531 0.375-0.27344 0.25-0.40625 0.6875-0.40625 1.3125v1.0625h4.1875v3.5h-4.1875v11.812h-4.8906v-11.812h-2.4375v-3.5h2.4375v-1.0625c0-1.6641 0.46094-2.8984 1.3906-3.7031 0.92578-0.80078 2.3672-1.2031 4.3281-1.2031z"/>
  </symbol>
  <symbol id="r" overflow="visible">
   <path d="m16.547-12.766c0.61328-0.94531 1.3477-1.6719 2.2031-2.1719 0.85156-0.5 1.7891-0.75 2.8125-0.75 1.7578 0 3.0977 0.54688 4.0156 1.6406 0.92578 1.0859 1.3906 2.6562 1.3906 4.7188v9.3281h-4.9219v-7.9844-0.35938c0.007813-0.13281 0.015625-0.32031 0.015625-0.5625 0-1.082-0.16406-1.8633-0.48438-2.3438-0.3125-0.48828-0.82422-0.73438-1.5312-0.73438-0.92969 0-1.6484 0.38672-2.1562 1.1562-0.51172 0.76172-0.77344 1.8672-0.78125 3.3125v7.5156h-4.9219v-7.9844c0-1.6953-0.14844-2.7852-0.4375-3.2656-0.29297-0.48828-0.8125-0.73438-1.5625-0.73438-0.9375 0-1.6641 0.38672-2.1719 1.1562-0.51172 0.76172-0.76562 1.8594-0.76562 3.2969v7.5312h-4.9219v-15.312h4.9219v2.2344c0.60156-0.86328 1.2891-1.5156 2.0625-1.9531 0.78125-0.4375 1.6406-0.65625 2.5781-0.65625 1.0625 0 2 0.25781 2.8125 0.76562 0.8125 0.51172 1.4258 1.2305 1.8438 2.1562z"/>
  </symbol>
  <symbol id="q" overflow="visible">
   <path d="m17.75-9.3281v9.3281h-4.9219v-7.1094c0-1.3438-0.03125-2.2656-0.09375-2.7656s-0.16797-0.86719-0.3125-1.1094c-0.1875-0.3125-0.44922-0.55469-0.78125-0.73438-0.32422-0.17578-0.69531-0.26562-1.1094-0.26562-1.0234 0-1.8242 0.39844-2.4062 1.1875-0.58594 0.78125-0.875 1.8711-0.875 3.2656v7.5312h-4.8906v-21.281h4.8906v8.2031c0.73828-0.88281 1.5195-1.5391 2.3438-1.9688 0.83203-0.42578 1.75-0.64062 2.75-0.64062 1.7695 0 3.1133 0.54688 4.0312 1.6406 0.91406 1.0859 1.375 2.6562 1.375 4.7188z"/>
  </symbol>
  <symbol id="p" overflow="visible">
   <path d="m2.5781-20.406h5.875l7.4219 14v-14h4.9844v20.406h-5.875l-7.4219-14v14h-4.9844z"/>
  </symbol>
  <symbol id="o" overflow="visible">
   <path d="m2.1875-5.9688v-9.3438h4.9219v1.5312c0 0.83594-0.007813 1.875-0.015625 3.125-0.011719 1.25-0.015625 2.0859-0.015625 2.5 0 1.2422 0.03125 2.1328 0.09375 2.6719 0.070313 0.54297 0.17969 0.93359 0.32812 1.1719 0.20703 0.32422 0.47266 0.57422 0.79688 0.75 0.32031 0.16797 0.69141 0.25 1.1094 0.25 1.0195 0 1.8203-0.39062 2.4062-1.1719 0.58203-0.78125 0.875-1.8672 0.875-3.2656v-7.5625h4.8906v15.312h-4.8906v-2.2188c-0.74219 0.89844-1.5234 1.5586-2.3438 1.9844-0.82422 0.41406-1.7344 0.625-2.7344 0.625-1.7617 0-3.1055-0.53906-4.0312-1.625-0.92969-1.082-1.3906-2.6602-1.3906-4.7344z"/>
  </symbol>
  <symbol id="n" overflow="visible">
   <path d="m2.5781-20.406h8.7344c2.5938 0 4.582 0.57812 5.9688 1.7344 1.3945 1.1484 2.0938 2.7891 2.0938 4.9219 0 2.1367-0.69922 3.7812-2.0938 4.9375-1.3867 1.1562-3.375 1.7344-5.9688 1.7344h-3.4844v7.0781h-5.25zm5.25 3.8125v5.7031h2.9219c1.0195 0 1.8047-0.25 2.3594-0.75 0.5625-0.5 0.84375-1.2031 0.84375-2.1094 0-0.91406-0.28125-1.6172-0.84375-2.1094-0.55469-0.48828-1.3398-0.73438-2.3594-0.73438z"/>
  </symbol>
  <symbol id="m" overflow="visible">
   <path d="m2.3594-15.312h4.8906v15.031c0 2.0508-0.49609 3.6172-1.4844 4.7031-0.98047 1.082-2.4062 1.625-4.2812 1.625h-2.4219v-3.2188h0.85938c0.92578 0 1.5625-0.21094 1.9062-0.625 0.35156-0.41797 0.53125-1.2461 0.53125-2.4844zm0-5.9688h4.8906v4h-4.8906z"/>
  </symbol>
  <symbol id="l" overflow="visible">
   <path d="m14.719-14.828v3.9844c-0.65625-0.45703-1.3242-0.79688-2-1.0156-0.66797-0.21875-1.3594-0.32812-2.0781-0.32812-1.3672 0-2.4336 0.40234-3.2031 1.2031-0.76172 0.79297-1.1406 1.9062-1.1406 3.3438 0 1.4297 0.37891 2.543 1.1406 3.3438 0.76953 0.79297 1.8359 1.1875 3.2031 1.1875 0.75781 0 1.4844-0.10938 2.1719-0.32812 0.6875-0.22656 1.3203-0.56641 1.9062-1.0156v4c-0.76172 0.28125-1.5391 0.48828-2.3281 0.625-0.78125 0.14453-1.5742 0.21875-2.375 0.21875-2.7617 0-4.9219-0.70703-6.4844-2.125-1.5547-1.4141-2.3281-3.3828-2.3281-5.9062 0-2.5312 0.77344-4.5039 2.3281-5.9219 1.5625-1.4141 3.7227-2.125 6.4844-2.125 0.80078 0 1.5938 0.074219 2.375 0.21875 0.78125 0.13672 1.5547 0.35156 2.3281 0.64062z"/>
  </symbol>
 </defs>
 <g>
  <path d="m387.69 188.33h-2.1289c-24.477 0.035156-48.883 2.6836-72.797 7.8945-10.754 2.0117-21.348 4.7969-31.699 8.3438-18.883 7.2266-35.234 19.82-47.039 36.234-22.398 29.793-28 62.328-14.391 97.328 6.9492 19.555 21.254 35.629 39.871 44.801 20.281 9.9414 43.297 12.84 65.406 8.2305 18.719-2.9688 36.457-10.363 51.746-21.559 7.5586-5.9922 14.617-12.711 22.398-19.266 0.44141 0.5 0.85156 1.0234 1.2344 1.5664 8.8359 12.625 18.828 24.398 29.848 35.168 4.2578 4.2812 11.074 4.6211 15.734 0.78516 14.934-12.508 29.867-25.031 44.801-37.574 0.78516-0.87109 1.3281-1.9336 1.5664-3.082 1.3633-3.7773 0.73047-7.9883-1.6797-11.199-3.4727-5.0391-6.7188-10.246-10.473-15.121h0.003906c-5.8594-8.0234-9.6992-17.34-11.203-27.16-0.83594-4.6562-1.2656-9.3789-1.2852-14.109v-124.71-0.003907c0.32422-10.73-1.1328-21.441-4.3125-31.695-4.9102-16.34-15.016-30.633-28.785-40.711-22.641-15.691-49.207-24.762-76.715-26.195-27.508-1.4336-54.871 4.8242-79.02 18.074-28.223 14.551-48.246 41.199-54.379 72.352-0.84375 3.1758-0.17969 6.5625 1.8008 9.1875 1.9766 2.625 5.0508 4.1914 8.3359 4.2539l28.281 2.5195c7.0547 0.61719 14.113 1.2891 21.168 1.8477 5.4961 0.71484 10.746-2.5039 12.598-7.7266 2.043-9.9102 7.1875-18.91 14.688-25.695 7.5039-6.7891 16.973-11.008 27.035-12.051 9.4414-1.8867 19.238-0.75 28 3.25 6.5508 2.7852 12.113 7.4844 15.957 13.477 3.8477 5.9922 5.8008 13.004 5.6016 20.121v29.398c-0.054688 0.95703-0.11328 1.9648-0.16797 3.0273zm-10.809 119.67c-4.8047 7.7383-10.84 14.641-17.863 20.441-8.4062 7.1992-19.824 9.7969-30.52 6.9414-4.418-1.0977-8.6758-2.7734-12.656-4.9844-8.9961-5.0234-15.188-13.898-16.801-24.078-2.9961-11.418-2.6055-23.461 1.1211-34.664 4.5-12.098 13.156-22.199 24.414-28.504 7.9219-5.082 16.992-8.0859 26.379-8.7383 11.594-0.72656 23.238-1.2891 34.832-1.9023h2.0156v3.3047 34.105c0.19141 13.488-3.6094 26.738-10.922 38.078z"/>
<g fill="#F19E38">
    <path d="m176.4 425.6c-5.6016-3.0234-11.199-6.1602-16.801-9.3516-3.6953-2.1836-7.3359-4.3672-11.199-6.7188-5.6016-3.6406-11.199-7.4492-16.801-11.199l0.003906-0.003906c-0.76562-0.76172-1.8281-1.1523-2.9062-1.0664-1.0742 0.085937-2.0625 0.64062-2.6953 1.5156-1.5078 1.5625-1.5078 4.0352 0 5.5977 4.3672 4.9297 8.8477 9.8008 13.496 14.559 2.6875 2.8008 5.6016 5.2656 8.457 7.9531 9.1523 8.9922 19.043 17.195 29.566 24.527 5.6016 4.0312 11.48 7.8945 17.414 11.535 7.5586 4.5938 15.176 9.2383 23.129 13.215 7.9531 3.9766 15.625 7.168 23.52 10.527l0.003907 0.003906c4.7891 2.1133 9.6875 3.9844 14.672 5.6016 9.6289 3.5742 19.59 6.1797 29.734 7.7812 9.1289 0.89453 18.199 2.7422 27.383 3.6406 5.6016 0.55859 11.703 0 17.586 0v0.28125c9.7422-0.55859 19.543-0.78516 29.23-1.793 8.0625-0.83984 16.016-2.3516 23.969-3.9766s16.238-3.6406 24.305-5.9375c5.9922-1.7344 11.816-4.0898 17.641-6.3281v0.003906c5.082-1.7773 10.074-3.8164 14.949-6.1055 6.5508-3.2461 12.938-6.8867 19.266-10.586 6.3281-3.6953 11.199-6.6641 16.238-10.305v0.003906c4.082-2.8047 7.9922-5.8555 11.707-9.1289 5.6016-4.7617 10.754-9.6875 16.016-14.672 1.6641-1.8633 1.8945-4.6055 0.55859-6.7188-1.7461-1.7383-4.2734-2.4375-6.6641-1.8477-2.5195 0.89453-4.8711 2.2383-7.3359 3.3047-11.199 4.8164-22.398 9.5195-33.602 14.449v-0.003906c-11.16 4.668-22.629 8.5586-34.328 11.648-5.6016 1.625-11.199 3.2461-16.801 4.7031-3.6406 0.89453-7.2812 1.625-11.199 2.4062-5.6016 1.2305-11.199 2.7422-16.801 3.5859-5.6016 0.83984-11.594 0.89453-17.414 1.2305-4.0898 0-8.1211 0.61719-12.207 0.67188-9.4648 0-18.984 0-28.449-0.28125-6.4961 0-12.992-0.95312-19.543-1.5117-3.8086-0.33594-7.6172-0.55859-11.199-1.1758-8.625-1.5117-17.191-3.3047-25.762-4.9297v0.003907c-9.6719-1.832-19.16-4.5508-28.336-8.1172-7.6172-3.0234-15.176-6.1055-22.68-9.2969-5.9375-2.5195-11.871-5.0391-17.641-7.8398-5.2617-3.1914-11.816-6.6094-18.48-9.8555z"/>
  <path d="m571.87 407.68c1.1797-6.2305 1.8906-12.535 2.1289-18.871 0.015625-7.1211-5.2148-13.164-12.266-14.168-5.7305-0.98828-11.539-1.4766-17.359-1.457-9.8359 0.078125-19.641 1.2266-29.23 3.418-12.156 2.8789-23.754 7.7422-34.328 14.391-1.0078 0.67187-1.3438 2.3516-2.0156 3.5859v-0.003906c1.2539 0.5 2.5742 0.80078 3.918 0.89844 4.0898-0.55859 8.0625-1.7344 12.152-2.0703 8.7344-0.78516 17.527-1.1758 26.938-1.7344l18.762 1.5664-0.003906-0.003906c3.7578 0.52734 7.1172 2.6172 9.25 5.7539 2.1328 3.1328 2.8398 7.0234 1.9531 10.711-1.6797 4.7617-2.4062 9.8555-3.9219 14.727-2.8008 8.9609-5.6016 17.863-8.7344 26.77-1.457 4.1992-3.4727 8.1758-5.0391 12.32h-0.003907c-0.21484 1.0898-0.21484 2.2148 0 3.3047 1.0781 0.0625 2.1562-0.050781 3.1953-0.33594 1.3555-0.62891 2.5742-1.5234 3.582-2.6328 5.582-6.0625 10.836-12.418 15.738-19.039 4.3789-6.7148 8.1289-13.82 11.199-21.223 1.9844-5.125 3.3555-10.461 4.0859-15.906z"/>
</g>
 </g>
</symbol>


<!-- Skype -->
<symbol id="skype" viewBox="0 0 40 40">
  <rect width="40" height="40" rx="20" fill="#00B19D"/>
  <path d="M29.7373 22.0762C29.8789 21.3926 29.9668 20.665 29.9668 19.9375C29.9668 14.3955 25.4795 9.91309 19.9424 9.91309C19.2148 9.91309 18.4922 9.99609 17.8037 10.1426C16.876 9.4248 15.7236 9 14.4688 9C11.4512 9 9 11.4512 9 14.4688C9 15.7236 9.4248 16.876 10.1377 17.7988C9.99609 18.4824 9.9082 19.21 9.9082 19.9375C9.9082 25.4795 14.3955 29.9619 19.9326 29.9619C20.6602 29.9619 21.3828 29.8789 22.0713 29.7324C22.999 30.4453 24.1514 30.8701 25.4014 30.8701C28.4189 30.8701 30.8701 28.4189 30.8701 25.4014C30.875 24.1514 30.4502 22.999 29.7373 22.0762ZM20.2354 26.5439C17.0322 26.5439 14.3516 25.1182 14.3516 23.3701C14.3516 22.5889 14.791 21.876 15.792 21.876C17.3154 21.876 17.457 24.0684 20.0938 24.0684C21.3486 24.0684 22.1592 23.5117 22.1592 22.7842C22.1592 21.8711 21.3779 21.7295 20.1084 21.417C17.0566 20.665 14.3564 20.3428 14.3564 17.1592C14.3564 14.2686 17.2178 13.1992 19.6836 13.1992C22.374 13.1992 25.0938 14.2686 25.0938 15.9043C25.0938 16.7295 24.5371 17.457 23.6143 17.457C22.2324 17.457 22.1885 15.8213 19.9521 15.8213C18.6973 15.8213 17.9014 16.1631 17.9014 16.9199C17.9014 17.8867 18.917 17.9844 21.2754 18.5312C23.2969 18.9854 25.7041 19.8398 25.7041 22.3203C25.7041 25.2061 22.916 26.5439 20.2354 26.5439Z" fill="white"/>
</symbol>


<!-- Facebook -->
<symbol id="facebook" viewBox="0 0 40 40">
  <rect width="40" height="40" rx="20" fill="#00B19D"/>
  <path d="M25.5122 22.0625L26.2065 17.5381H21.8652V14.6021C21.8652 13.3643 22.4717 12.1577 24.416 12.1577H26.3896V8.30566C26.3896 8.30566 24.5986 8 22.8862 8C19.311 8 16.9741 10.167 16.9741 14.0898V17.5381H13V22.0625H16.9741V33H21.8652V22.0625H25.5122Z" fill="white"/>
</symbol>

<!-- Twitter -->
<svg id="twitter" viewBox="0 0 40 40" fill="none">
<rect width="40" height="40" rx="20" fill="#00B19D"/>
<path d="M30.4302 15.0603C30.446 15.2823 30.446 15.5044 30.446 15.7265C30.446 22.5 25.2906 30.3045 15.868 30.3045C12.9651 30.3045 10.2684 29.4638 8 28.0044C8.41245 28.052 8.80898 28.0679 9.2373 28.0679C11.6326 28.0679 13.8375 27.2589 15.5983 25.8788C13.3458 25.8312 11.4581 24.356 10.8077 22.3255C11.125 22.373 11.4422 22.4048 11.7754 22.4048C12.2354 22.4048 12.6955 22.3413 13.1237 22.2303C10.776 21.7544 9.01519 19.6922 9.01519 17.2018V17.1383C9.69727 17.519 10.4905 17.757 11.3312 17.7887C9.95107 16.8686 9.04692 15.2982 9.04692 13.5215C9.04692 12.5698 9.30068 11.6973 9.74487 10.9359C12.2671 14.045 16.0583 16.0754 20.3096 16.2976C20.2303 15.9168 20.1827 15.5203 20.1827 15.1237C20.1827 12.3001 22.4669 10 25.3064 10C26.7816 10 28.1141 10.6187 29.05 11.618C30.208 11.3959 31.3184 10.9676 32.302 10.3807C31.9212 11.5705 31.1122 12.5698 30.0494 13.2043C31.0805 13.0933 32.0799 12.8077 32.9999 12.4112C32.302 13.4264 31.4295 14.3305 30.4302 15.0603Z" fill="#FFF8F8"/>
</svg>


<symbol id="play" viewBox="0 0 134 134" fill="none">
  <circle cx="66.5878" cy="66.5878" r="66.5878" fill="white"/>
  <path d="M92.1985 66.5877L53.7825 88.7672L53.7825 44.4082L92.1985 66.5877Z" fill="black"/>
</symbol>

<symbol id="gototop" viewBox="0 0 20 20">
  <path fill-rule="evenodd" d="M14.77 12.79a.75.75 0 01-1.06-.02L10 8.832 6.29 12.77a.75.75 0 11-1.08-1.04l4.25-4.5a.75.75 0 011.08 0l4.25 4.5a.75.75 0 01-.02 1.06z" clip-rule="evenodd" />
</symbol>

<symbol id="close" viewBox="0 0 20 20" fill="currentColor">
  <path d="M6.28 5.22a.75.75 0 00-1.06 1.06L8.94 10l-3.72 3.72a.75.75 0 101.06 1.06L10 11.06l3.72 3.72a.75.75 0 101.06-1.06L11.06 10l3.72-3.72a.75.75 0 00-1.06-1.06L10 8.94 6.28 5.22z" />
</symbol>

<symbol id="menu" viewBox="0 0 20 20" fill="currentColor">
  <path fill-rule="evenodd" d="M2 4.75A.75.75 0 012.75 4h14.5a.75.75 0 010 1.5H2.75A.75.75 0 012 4.75zM2 10a.75.75 0 01.75-.75h14.5a.75.75 0 010 1.5H2.75A.75.75 0 012 10zm0 5.25a.75.75 0 01.75-.75h14.5a.75.75 0 010 1.5H2.75a.75.75 0 01-.75-.75z" clip-rule="evenodd" />
</symbol>



</svg>
